<svg xmlns="http://www.w3.org/2000/svg" version="1.1" xmlns:xlink="http://www.w3.org/1999/xlink" xmlns:svgjs="http://svgjs.dev/svgjs" viewBox="0 0 800 800"><defs><symbol id="bbburst-shape-1" viewBox="0 0 194 167"><path d="m97 0 96.129 166.5H.871L97 0Z"></path></symbol><symbol id="bbburst-shape-4" viewBox="0 0 149 143"><path d="M71.647 2.781c.898-2.764 4.808-2.764 5.706 0l15.445 47.534a3 3 0 0 0 2.853 2.073h49.98c2.906 0 4.115 3.719 1.764 5.427L106.96 87.193a2.999 2.999 0 0 0-1.09 3.354l15.445 47.534c.898 2.764-2.266 5.062-4.617 3.354l-40.435-29.378a3 3 0 0 0-3.526 0l-40.435 29.378c-2.351 1.708-5.515-.59-4.617-3.354L43.13 90.547a3 3 0 0 0-1.09-3.354L1.605 57.815c-2.35-1.708-1.142-5.427 1.764-5.427h49.98a3 3 0 0 0 2.853-2.073L71.647 2.781Z"></path></symbol><symbol id="bbburst-shape-6" viewBox="0 0 133 116"><path d="M59.7487 10.2513c-13.6683-13.66839-35.8291-13.66839-49.4974 0-13.66839 13.6683-13.66839 35.8291 0 49.4974l49.4974-49.4974ZM66.5 66.5 41.7513 91.2487 66.5 115.997l24.7487-24.7483L66.5 66.5Zm56.249-6.7513c13.668-13.6683 13.668-35.8291 0-49.4974-13.669-13.66839-35.8294-13.66839-49.4977 0l49.4977 49.4974Zm-112.4977 0 31.5 31.5 49.4974-49.4974-31.5-31.5-49.4974 49.4974Zm80.9974 31.5 31.5003-31.5-49.4977-49.4974-31.5 31.5 49.4974 49.4974Z"></path></symbol><symbol id="bbburst-shape-8" viewBox="0 0 87 168"><path d="m12 12 31.2546 18.0749c16.4102 9.4902 20.014 31.6325 7.4603 45.8369L36.3296 92.1884c-12.5684 14.2206-8.9394 36.3916 7.5068 45.8636L75 156" stroke-width="14" stroke-linecap="round" stroke-linejoin="round"></path></symbol><symbol id="bbburst-shape-10" viewBox="0 0 145 145"><circle cx="72.5" cy="72.5" r="61.5" fill="none" stroke-width="22"></circle></symbol></defs><use xlink:href="#bbburst-shape-6" width="38.5927808910077" opacity="0.5810516374297972" transform="matrix(0.9130754236129891,0.40779071935732,-0.40779071935732,0.9130754236129891,357.8113224430066,44.689179944888)" fill="#f7e8dd"></use><use xlink:href="#bbburst-shape-6" width="20.539318768355184" opacity="0.9360092587186842" transform="matrix(0.7352549442550105,0.6777906512696685,-0.6777906512696685,0.7352549442550105,673.7874145892481,125.85791553052354)" fill="#f48484"></use><use xlink:href="#bbburst-shape-4" width="34.59307824954178" opacity="0.4095969814218504" transform="matrix(0.8069585705315184,-0.5906080472239845,0.5906080472239845,0.8069585705315184,412.4527661091204,47.34003856486311)" fill="#ffffff"></use><use xlink:href="#bbburst-shape-4" width="28.98409916698244" opacity="0.6398985278285723" transform="matrix(0.9740026960527142,0.22653641667962393,-0.22653641667962393,0.9740026960527142,577.6944032726159,-119.41721562208204)" fill="#f7e8dd"></use><use xlink:href="#bbburst-shape-4" width="37.851362585090044" opacity="0.12445023615664985" transform="matrix(0.9651002205989576,-0.26188082060327256,0.26188082060327256,0.9651002205989576,443.1716416071629,-338.28737303118595)" fill="#f7e8dd"></use><use xlink:href="#bbburst-shape-8" width="34.330332097127545" opacity="0.4417193827593613" transform="matrix(0.9602222252016362,0.2792369571328591,-0.2792369571328591,0.9602222252016362,673.7198961087832,187.8938533681735)" fill="none" stroke="#ffffff"></use><use xlink:href="#bbburst-shape-4" width="33.166450936752256" opacity="0.34817118181075857" transform="matrix(0.8572209634645532,-0.5149487545347625,0.5149487545347625,0.8572209634645532,72.04436515086545,-207.1282373878256)" fill="#ffffff"></use><use xlink:href="#bbburst-shape-1" width="34.46643897219882" opacity="0.3780081106421408" transform="matrix(0.7979487092677425,-0.6027253581673361,0.6027253581673361,0.7979487092677425,4.244520232374725,333.06435094200117)" fill="#f48484"></use><use xlink:href="#bbburst-shape-10" width="43.170681764419044" opacity="0.208943814316088" transform="matrix(0.8535413581651708,-0.521025095270425,0.521025095270425,0.8535413581651708,528.5973286860393,50.15880986746134)" fill="none" stroke="#f7e8dd"></use><use xlink:href="#bbburst-shape-4" width="37.800628494532646" opacity="0.11890306401233919" transform="matrix(0.9607335214360666,-0.2774727027818323,0.2774727027818323,0.9607335214360666,84.84602937963552,371.1340933687227)" fill="#f7e8dd"></use><use xlink:href="#bbburst-shape-10" width="40.176700143027475" opacity="0.10520555414665256" transform="matrix(0.9471757528234585,0.3207149719974338,-0.3207149719974338,0.9471757528234585,694.3466233953382,372.28398398609727)" fill="none" stroke="#f7e8dd"></use><use xlink:href="#bbburst-shape-10" width="41.1101998319825" opacity="0.4053112131824471" transform="matrix(0.9951353977344357,0.09851669998495932,-0.09851669998495932,0.9951353977344357,152.20031693957023,-21.500071476744438)" fill="none" stroke="#f7e8dd"></use><use xlink:href="#bbburst-shape-6" width="32.445308904515" opacity="0.7396518213104141" transform="matrix(0.7540970429507625,-0.6567630088646252,0.6567630088646252,0.7540970429507625,235.1462159466543,149.10406030007755)" fill="#ffffff"></use><use xlink:href="#bbburst-shape-4" width="30.02586964969947" opacity="0.570801766607498" transform="matrix(0.9728014116103372,-0.23164069929296818,0.23164069929296818,0.9728014116103372,485.1564528095711,31.138671454944188)" fill="#f7e8dd"></use><use xlink:href="#bbburst-shape-6" width="31.547189804659023" opacity="0.5546925324086813" transform="matrix(0.8596555983818334,0.5108740081182169,-0.5108740081182169,0.8596555983818334,769.9368731797929,-41.70743057932407)" fill="#ffbd9b"></use><use xlink:href="#bbburst-shape-10" width="45.19658558710119" opacity="0.19930677376273687" transform="matrix(0.9243114654421737,-0.38163898497420473,0.38163898497420473,0.9243114654421737,-2.2424796777847007,-239.52695315695485)" fill="none" stroke="#ffffff"></use><use xlink:href="#bbburst-shape-1" width="19.121387188704272" opacity="0.8681935615622214" transform="matrix(0.999895055163475,-0.014487189500772239,0.014487189500772239,0.999895055163475,443.1458883540134,9.990733900795021)" fill="#f7e8dd"></use><use xlink:href="#bbburst-shape-6" width="35.72767990968933" opacity="0.5585058967038794" transform="matrix(0.7771680864221312,0.6292930680112111,-0.6292930680112111,0.7771680864221312,458.26256439082,-7.1078375557096365)" fill="#ffffff"></use><use xlink:href="#bbburst-shape-10" width="34.31997853924154" opacity="0.10766949183478891" transform="matrix(0.7563859110961773,-0.654125640450828,0.654125640450828,0.7563859110961773,479.8549873924721,-79.96120933646847)" fill="none" stroke="#f7e8dd"></use><use xlink:href="#bbburst-shape-4" width="34.178028403733606" opacity="0.23776475909385597" transform="matrix(0.9973835971399941,-0.07229080270743884,0.07229080270743884,0.9973835971399941,566.1534744930111,271.8709796485476)" fill="#f7e8dd"></use><use xlink:href="#bbburst-shape-8" width="45.10038675376725" opacity="0.3491219467536739" transform="matrix(0.9795257840909386,0.20131874801178318,-0.20131874801178318,0.9795257840909386,211.97649418682903,-154.60237118891035)" fill="none" stroke="#f7e8dd"></use><use xlink:href="#bbburst-shape-4" width="35.32656493801505" opacity="0.6583060894427201" transform="matrix(0.7095789005537143,-0.7046259886556712,0.7046259886556712,0.7095789005537143,-28.439157139031977,203.90988125568373)" fill="#f48484"></use><use xlink:href="#bbburst-shape-8" width="28.71444469960664" opacity="0.5508796538992289" transform="matrix(0.9305706617884876,-0.3661123371569665,0.3661123371569665,0.9305706617884876,301.54384587000703,-159.53971924785114)" fill="none" stroke="#ffffff"></use><use xlink:href="#bbburst-shape-4" width="33.11319646514419" opacity="0.6463528639659217" transform="matrix(0.993929383200897,0.11001991278802435,-0.11001991278802435,0.993929383200897,410.1632397094868,158.82530216140736)" fill="#ffffff"></use><use xlink:href="#bbburst-shape-10" width="45.00534289583889" opacity="0.343001494514254" transform="matrix(0.9997448852875901,-0.022586817865809933,0.022586817865809933,0.9997448852875901,464.1610115455317,-279.1242601548289)" fill="none" stroke="#f48484"></use><use xlink:href="#bbburst-shape-4" width="22.88778611927013" opacity="0.773055710982868" transform="matrix(0.8897431297327189,0.45646156803549864,-0.45646156803549864,0.8897431297327189,590.1582458902345,-61.670360542677145)" fill="#ffffff"></use><use xlink:href="#bbburst-shape-8" width="45.310306496129705" opacity="0.468466753256944" transform="matrix(0.9828004394185311,-0.18467077808560348,0.18467077808560348,0.9828004394185311,281.72300175789644,249.2263479773825)" fill="none" stroke="#ffffff"></use><use xlink:href="#bbburst-shape-6" width="44.527335391743634" opacity="0.30691754077468325" transform="matrix(0.8516582535911167,0.5240975282236401,-0.5240975282236401,0.8516582535911167,299.65901652438157,159.83691421452988)" fill="#f48484"></use><use xlink:href="#bbburst-shape-6" width="42.640739939376914" opacity="0.19434077711330777" transform="matrix(0.7949688759238488,0.6066502174337138,-0.6066502174337138,0.7949688759238488,867.4357969180166,-201.123094224937)" fill="#ffffff"></use><use xlink:href="#bbburst-shape-4" width="39.7390495137579" opacity="0.20060914309312494" transform="matrix(0.9884486887598117,0.15155589625286392,-0.15155589625286392,0.9884486887598117,83.51003518161825,41.89655603227959)" fill="#f48484"></use><use xlink:href="#bbburst-shape-6" width="22.513538177979232" opacity="0.9099863743182001" transform="matrix(0.978581019591462,0.20586206084496114,-0.20586206084496114,0.978581019591462,489.2359277811586,-30.082573887708634)" fill="#ffffff"></use><use xlink:href="#bbburst-shape-4" width="45.17745634667206" opacity="0.4287447361280927" transform="matrix(0.9998937134830247,0.014579497149312727,-0.014579497149312727,0.9998937134830247,553.0384113231579,-193.25481933288793)" fill="#f48484"></use><use xlink:href="#bbburst-shape-6" width="26.004403087271214" opacity="0.7804612234601911" transform="matrix(0.7796594897801848,-0.626203704872226,0.626203704872226,0.7796594897801848,216.38206118550926,34.384614351702)" fill="#ffbd9b"></use><use xlink:href="#bbburst-shape-10" width="50.21507026784573" opacity="0.3724349106145287" transform="matrix(0.9908742512802056,0.1347895327905403,-0.1347895327905403,0.9908742512802056,699.6021057952503,81.17914151648148)" fill="none" stroke="#ffffff"></use><use xlink:href="#bbburst-shape-8" width="23.515462002128764" opacity="0.7836377453258431" transform="matrix(0.9965845241491119,-0.08257896963808789,0.08257896963808789,0.9965845241491119,368.27237348970135,98.82546890196977)" fill="none" stroke="#ffbd9b"></use><use xlink:href="#bbburst-shape-6" width="37.26219938627511" opacity="0.36112811602610695" transform="matrix(0.7570596008666997,-0.6533458201714872,0.6533458201714872,0.7570596008666997,215.69113717048555,382.0144647814292)" fill="#f7e8dd"></use><use xlink:href="#bbburst-shape-6" width="59.999491455064344" opacity="0.08425761575310242" transform="matrix(0.9959918796958367,0.08944370061638719,-0.08944370061638719,0.9959918796958367,60.48399195789567,-225.8069992781206)" fill="#f7e8dd"></use><use xlink:href="#bbburst-shape-1" width="32.9933332227822" opacity="0.5687324772151765" transform="matrix(0.9180917666947698,0.39636789467270994,-0.39636789467270994,0.9180917666947698,617.7084058406365,205.5380221597182)" fill="#ffffff"></use><use xlink:href="#bbburst-shape-6" width="57.958890894271576" opacity="-0.05441873843996081" transform="matrix(0.7326248805894867,-0.6806326353777347,0.6806326353777347,0.7326248805894867,-224.55952226143415,466.5690656706378)" fill="#f7e8dd"></use><use xlink:href="#bbburst-shape-6" width="50.48304400313785" opacity="-0.06067045517241487" transform="matrix(0.9418398955788425,-0.3360619155691924,0.3360619155691924,0.9418398955788425,-85.11125241062398,-316.0237038600386)" fill="#ffffff"></use><use xlink:href="#bbburst-shape-10" width="39.65338459659432" opacity="0.13190821677420772" transform="matrix(0.9499205878295486,-0.31249140278984455,0.31249140278984455,0.9499205878295486,104.9452412938029,-333.9555785297381)" fill="none" stroke="#f7e8dd"></use><use xlink:href="#bbburst-shape-4" width="39.389140837560674" opacity="0.19971716593812328" transform="matrix(0.9946257275366699,0.10353580116148314,-0.10353580116148314,0.9946257275366699,715.5474489162468,208.51343861154317)" fill="#f7e8dd"></use><use xlink:href="#bbburst-shape-10" width="44.601129594674866" opacity="0.09297435429851508" transform="matrix(0.7581445693147798,-0.6520865065453411,0.6520865065453411,0.7581445693147798,-231.5379002348196,314.813087187008)" fill="none" stroke="#ffffff"></use><use xlink:href="#bbburst-shape-8" width="25.57145965355484" opacity="0.8800243125381416" transform="matrix(0.9110629915752926,-0.41226717718231987,0.41226717718231987,0.9110629915752926,184.79718823860838,3.147128080383027)" fill="none" stroke="#ffbd9b"></use><use xlink:href="#bbburst-shape-10" width="24.401078891935548" opacity="0.8744900364193104" transform="matrix(0.7739640490671966,-0.633229540333922,0.633229540333922,0.7739640490671966,101.58311787401766,141.9203277148717)" fill="none" stroke="#f7e8dd"></use><use xlink:href="#bbburst-shape-8" width="32.433056923656466" opacity="0.137089361528148" transform="matrix(0.9938182696721736,0.11101912837798171,-0.11101912837798171,0.9938182696721736,789.8545003226984,142.29365276049748)" fill="none" stroke="#ffbd9b"></use><use xlink:href="#bbburst-shape-1" width="34.59832771017574" opacity="0.499047872815215" transform="matrix(0.9960024066540376,-0.0893264011329522,0.0893264011329522,0.9960024066540376,211.05992277754765,-176.60696042028096)" fill="#f48484"></use><use xlink:href="#bbburst-shape-1" width="33.4347386464725" opacity="0.7286222269136421" transform="matrix(0.7151649647649363,0.6989557018672695,-0.6989557018672695,0.7151649647649363,741.9634455431305,199.1452365805864)" fill="#f7e8dd"></use><use xlink:href="#bbburst-shape-10" width="25.769662461973923" opacity="0.7947895566287999" transform="matrix(0.8753565222112872,0.48347798194143254,-0.48347798194143254,0.8753565222112872,491.6025740466842,61.945062964412955)" fill="none" stroke="#f7e8dd"></use><use xlink:href="#bbburst-shape-4" width="22.70236221042251" opacity="0.7378179770158653" transform="matrix(0.8733154151373516,-0.48715519671196694,0.48715519671196694,0.8733154151373516,131.46603107658075,155.48531475331907)" fill="#f7e8dd"></use><use xlink:href="#bbburst-shape-1" width="48.67559065379155" opacity="0.19805198499039356" transform="matrix(0.8420062683799915,-0.5394677413977612,0.5394677413977612,0.8420062683799915,-184.25025460016272,-19.14433968145198)" fill="#f7e8dd"></use><use xlink:href="#bbburst-shape-10" width="28.751098510324823" opacity="0.5837819909275639" transform="matrix(0.8152169359216095,-0.5791557194628941,0.5791557194628941,0.8152169359216095,315.8241680977832,180.90066144683618)" fill="none" stroke="#f7e8dd"></use><use xlink:href="#bbburst-shape-6" width="23.691529246676602" opacity="0.7347515113687841" transform="matrix(0.9698326498006509,-0.24377167879113457,0.24377167879113457,0.9698326498006509,179.53819675597313,-27.73994240751483)" fill="#ffffff"></use><use xlink:href="#bbburst-shape-4" width="27.065227909295658" opacity="0.7025278686110946" transform="matrix(0.7949719540217826,-0.6066461837997408,0.6066461837997408,0.7949719540217826,68.86976251057092,-18.7433173933793)" fill="#ffbd9b"></use><use xlink:href="#bbburst-shape-1" width="27.58501906100032" opacity="0.7117112694027065" transform="matrix(0.9992927566919914,-0.03760301082254557,0.03760301082254557,0.9992927566919914,498.1484969934264,-25.77477450284016)" fill="#f48484"></use><use xlink:href="#bbburst-shape-10" width="49.951879601399234" opacity="-0.054789679531713986" transform="matrix(0.9435207479500565,-0.3313134440190529,0.3313134440190529,0.9435207479500565,577.3597375458179,-306.9329420343352)" fill="none" stroke="#f7e8dd"></use><use xlink:href="#bbburst-shape-6" width="32.99603291651207" opacity="0.4598397443062241" transform="matrix(0.953685474521813,-0.3008056111280247,0.3008056111280247,0.953685474521813,244.25128088636288,-218.7842231909191)" fill="#f48484"></use><use xlink:href="#bbburst-shape-10" width="55.06862779276773" opacity="0.22633328667808372" transform="matrix(0.8216055802280944,0.5700563748771312,-0.5700563748771312,0.8216055802280944,357.5497306287965,300.15824133441447)" fill="none" stroke="#ffbd9b"></use><use xlink:href="#bbburst-shape-8" width="30.884692025134974" opacity="0.5644030931924949" transform="matrix(0.9901412348584258,-0.14007260629056523,0.14007260629056523,0.9901412348584258,216.85481747369883,167.097959740879)" fill="none" stroke="#f48484"></use><use xlink:href="#bbburst-shape-1" width="37.006805486875095" opacity="0.20492524574817994" transform="matrix(0.7888691518245222,0.6145611941049149,-0.6145611941049149,0.7888691518245222,672.4091512941046,428.52081083892307)" fill="#f7e8dd"></use><use xlink:href="#bbburst-shape-4" width="26.894920980952616" opacity="0.6444295496765795" transform="matrix(0.9955766002529324,-0.09395335560166448,0.09395335560166448,0.9955766002529324,325.5570487726037,-155.21807599166692)" fill="#ffffff"></use><use xlink:href="#bbburst-shape-1" width="45.98880975340682" opacity="0.23878460557404557" transform="matrix(0.9826212901775526,0.18562165846097278,-0.18562165846097278,0.9826212901775526,384.2234441551134,338.5881782643533)" fill="#f48484"></use><use xlink:href="#bbburst-shape-10" width="62.88765172820492" opacity="-0.04569359634790304" transform="matrix(0.7309985013639907,0.6823790669441727,-0.6823790669441727,0.7309985013639907,986.2457353013328,415.30171103467535)" fill="none" stroke="#f7e8dd"></use><use xlink:href="#bbburst-shape-6" width="44.124650410619154" opacity="0.3196082808139594" transform="matrix(0.9972827963343439,-0.07366833875927711,0.07366833875927711,0.9972827963343439,619.4622929481026,-139.90491803306935)" fill="#ffffff"></use><use xlink:href="#bbburst-shape-4" width="48.538368365071946" opacity="0.21953237680512216" transform="matrix(0.9557129161739927,-0.2943005638088431,0.2943005638088431,0.9557129161739927,261.41502127385843,-326.30338361425424)" fill="#ffffff"></use><use xlink:href="#bbburst-shape-1" width="44.57975650231635" opacity="0.4634488872992558" transform="matrix(0.8322887541058159,-0.5543423398848303,0.5543423398848303,0.8322887541058159,-44.28130767150034,208.60514411725853)" fill="#ffbd9b"></use></svg>